<?xml version="1.0" standalone="no"?>

<!DOCTYPE svg PUBLIC "-//W3C//DTD SVG 1.1//EN" "http://www.w3.org/Graphics/SVG/1.1/DTD/svg11.dtd">
<svg t="1609926327283" class="icon" viewBox="0 0 1407 1024" version="1.1" xmlns="http://www.w3.org/2000/svg" p-id="612"
     width="274.8046875" height="200"><defs><style type="text/css">
</style>
</defs>
    <rect xmlns="http://www.w3.org/2000/svg"  rx="120" ry="120" id="Rectangle-2" fill="#FFFFFF"  width="1407" height="1024"/>
<path d="M75.881026 6.564103C39.384615 19.954872 16.541538 42.535385 6.564103 75.618462c-3.413333 10.502564-3.938462 75.881026-3.938462 438.482051 0 392.008205 0.262564 427.191795 4.46359 439.794872 2.363077 7.614359 6.826667 17.066667 9.714872 21.530256 9.189744 13.128205 32.295385 34.921026 44.110769 41.222564l11.290256 6.038974 626.215385 0.787693c458.699487 0.525128 629.10359 0 636.717949-2.100513 23.630769-6.826667 50.149744-30.982564 62.490256-56.97641l8.402051-17.854359v-863.835898l-8.927179-18.904615c-12.603077-26.781538-35.18359-47.524103-63.277949-57.764103C1320.172308 1.050256 89.534359 1.312821 75.881026 6.564103z m1152.393846 260.463589l-0.787693 75.618462-315.602051 0.787692-315.864615 0.525128v283.569231h-149.661539V343.958974l-120.779487-0.525128-121.042051-0.787692v-69.054359c0.262564-37.809231 0.262564-71.68 0.262564-75.355898V191.671795h1024l-0.525128 75.355897zM1100.14359 581.579487V724.676923h126.030769v131.282051l-137.058462-0.525128-137.321025-0.787692-0.525128-204.8c-0.525128-112.64-0.262564-206.375385 0.525128-208.213333 0.787692-2.363077 18.379487-3.150769 74.830769-3.15077h73.517949v143.097436z m-763.536411-10.502564c0.787692 136.795897 0.525128 133.645128 15.753847 147.298462 12.340513 11.290256 17.329231 11.552821 169.878974 11.55282 163.052308 0 158.588718 0.525128 169.61641-18.379487 4.988718-8.927179 5.251282-13.915897 6.038975-138.633846l0.787692-129.181539H834.953846v157.013334c0 172.767179 0.262564 169.353846-16.278974 200.861538-13.128205 24.681026-40.172308 45.686154-68.266667 53.300513-21.792821 5.77641-440.845128 5.513846-462.900513-0.262564-32.820513-8.664615-62.490256-35.708718-77.45641-70.892308-7.351795-17.591795-6.826667-0.262564-8.402051-250.22359l-0.787693-89.796923 67.478975 0.525129 67.478974 0.787692 0.787692 126.030769z" fill="#db261f" p-id="613"></path></svg>
